<?xml version="1.0" encoding="utf-8"?>
<!-- Generator: Adobe Illustrator 22.0.0, SVG Export Plug-In . SVG Version: 6.00 Build 0)  -->
<svg version="1.1" id="Layer_1" xmlns="http://www.w3.org/2000/svg" xmlns:xlink="http://www.w3.org/1999/xlink" x="0px" y="0px"
	 viewBox="0 0 1407.1 321" style="enable-background:new 0 0 1407.1 321;" xml:space="preserve">
<style type="text/css">
	.st0{fill:#8882F7;}
	.st1{fill:#FFFFFF;}
	.st2{fill:#333333;}
</style>
<g>
	<circle class="st0" cx="174.7" cy="161.9" r="127.6"/>
</g>
<g>
	<path class="st0" d="M116.3,157.4c-1.3-4.2-2.8-10.3-2.8-18.2c0-33.8,27.4-61.1,61.1-61.1s61.1,27.4,61.1,61.1
		c0,7.9-1.4,13.9-2.8,18.2c-5.3,16.4-18.9,48.7-58,88.4C135.3,206.1,121.6,173.7,116.3,157.4z"/>
	<path class="st1" d="M175.1,248.9c-0.8,0-1.6-0.3-2.2-0.9c-29.4-29.3-49.9-60.3-59.5-89.6c0,0,0,0,0,0c-1.9-6-2.9-12.4-2.9-19.2
		c0-35.4,28.8-64.3,64.3-64.3s64.3,28.8,64.3,64.3c0,6.7-1,13-2.9,19.1c-9.4,29.2-29.8,60.2-58.8,89.7
		C176.7,248.6,175.9,248.9,175.1,248.9C175.1,248.9,175.1,248.9,175.1,248.9z M119.3,156.4c9,27.6,28.3,56.9,55.7,84.9
		c27.2-28.1,46.2-57.4,55.1-84.9c1.8-5.5,2.6-11.2,2.6-17.2c0-32-26-58-58-58s-58,26-58,58C116.7,145.2,117.6,151,119.3,156.4z"/>
</g>
<g>
	<g>
		<path class="st1" d="M138.6,133.9L138.6,133.9c4,0,7.5,2.6,8.7,6.4l7.8,25.9l8.7-26.3c1.2-3.7,4.7-6.2,8.6-6.2h0.3
			c3.9,0,7.4,2.5,8.6,6.2l8.7,26.3l7.8-25.9c1.2-3.8,4.7-6.4,8.7-6.4h0c4.6,0,7.8,4.5,6.4,8.8l-13.7,41.2c-1.2,3.7-4.7,6.2-8.6,6.2
			h-0.5c-3.8,0-7.3-2.4-8.5-6.1l-9.1-26.1l-9.1,26.1c-1.3,3.6-4.7,6.1-8.5,6.1h-0.5c-3.9,0-7.4-2.5-8.6-6.2L132,143
			C130.5,138.5,133.9,133.9,138.6,133.9z"/>
	</g>
</g>
<g>
	<path class="st2" d="M359,88.8h73.9V107H378v33.7h49.5v18H378v33.7h54.9v18.2H359V88.8z"/>
	<path class="st2" d="M461.5,209.6c-4.9-2.4-8.7-5.9-11.4-10.4c-2.7-4.5-4.1-9.5-4.1-15.2c0-9,3.4-16,10.1-21.2
		c6.7-5.2,15.3-7.8,25.6-7.8c5.1,0,9.7,0.5,13.8,1.4c4.1,1,7.3,2,9.7,3.1v-4.4c0-5.3-2-9.7-6-13c-4-3.3-9.1-5-15.3-5
		c-4.4,0-8.6,1-12.5,2.9c-3.9,1.9-7.1,4.6-9.4,8l-13.1-10c3.9-5.3,8.8-9.5,15-12.4c6.1-2.9,12.9-4.4,20.4-4.4
		c12.6,0,22.3,3.1,29.1,9.3c6.8,6.2,10.2,14.9,10.2,26.1v54.1h-18.4v-10.4h-0.9c-2.5,3.7-6,6.9-10.5,9.4c-4.5,2.5-9.7,3.7-15.6,3.7
		C471.9,213.2,466.4,212,461.5,209.6z M493.6,194.5c3.6-2.2,6.5-5,8.5-8.7c2-3.6,3.1-7.5,3.1-11.7c-2.6-1.5-5.6-2.7-9.1-3.6
		c-3.5-0.9-7.1-1.4-10.8-1.4c-7,0-12.2,1.4-15.5,4.2c-3.3,2.8-4.9,6.4-4.9,10.8c0,4,1.5,7.2,4.6,9.8c3.1,2.5,7,3.8,11.9,3.8
		C485.9,197.8,490,196.7,493.6,194.5z"/>
	<path class="st2" d="M550.2,206.7c-6.3-4.4-10.8-9.9-13.4-16.7l16.7-7.3c2,4.5,4.9,8,8.6,10.4c3.7,2.4,7.9,3.6,12.7,3.6
		c4.6,0,8.6-0.8,11.7-2.5c3.2-1.6,4.8-4.1,4.8-7.4c0-3.2-1.4-5.7-4.1-7.5c-2.7-1.8-6.9-3.4-12.6-4.8l-10.4-2.5
		c-6.9-1.7-12.6-4.7-17.2-9c-4.5-4.3-6.8-9.7-6.8-16.3c0-5.1,1.5-9.6,4.5-13.4c3-3.9,7.1-6.8,12.2-8.9c5.1-2.1,10.7-3.1,16.7-3.1
		c8,0,15.1,1.6,21.2,4.8c6.1,3.2,10.5,7.9,13.3,14l-16.3,7.1c-3.3-6.7-9.3-10-18-10c-4.2,0-7.7,0.9-10.5,2.6
		c-2.8,1.7-4.2,3.9-4.2,6.6c0,2.6,1.1,4.7,3.2,6.4c2.2,1.6,5.3,3,9.5,4.2l12.8,3.2c8.5,2.2,14.9,5.4,19.3,9.8
		c4.4,4.4,6.5,9.7,6.5,16.1c0,5.4-1.6,10.2-4.7,14.4c-3.1,4.1-7.4,7.3-12.8,9.6c-5.4,2.3-11.4,3.4-18,3.4
		C564.7,213.2,556.6,211,550.2,206.7z"/>
	<path class="st2" d="M652.9,205.7l-36-81.9h20.9l24.5,59h0.7l23.8-59h20.6l-53.5,123.4H634L652.9,205.7z"/>
	<path class="st2" d="M712.2,123.8h20.2l17.5,62h0.7l19.5-62h19.2l19.4,62h0.7l17.5-62h19.9l-27.7,86.7h-19.7l-19.9-62.2H779
		l-19.7,62.2h-19.4L712.2,123.8z"/>
	<path class="st2" d="M867.8,209.6c-4.9-2.4-8.7-5.9-11.4-10.4c-2.7-4.5-4.1-9.5-4.1-15.2c0-9,3.4-16,10.1-21.2
		c6.7-5.2,15.3-7.8,25.6-7.8c5.1,0,9.7,0.5,13.8,1.4c4.1,1,7.3,2,9.7,3.1v-4.4c0-5.3-2-9.7-6-13c-4-3.3-9.1-5-15.3-5
		c-4.4,0-8.6,1-12.5,2.9c-3.9,1.9-7.1,4.6-9.4,8l-13.1-10c3.9-5.3,8.8-9.5,15-12.4c6.1-2.9,12.9-4.4,20.4-4.4
		c12.6,0,22.3,3.1,29.1,9.3c6.8,6.2,10.2,14.9,10.2,26.1v54.1h-18.4v-10.4h-0.9c-2.5,3.7-6,6.9-10.5,9.4c-4.5,2.5-9.7,3.7-15.6,3.7
		C878.2,213.2,872.7,212,867.8,209.6z M899.9,194.5c3.6-2.2,6.5-5,8.5-8.7c2-3.6,3.1-7.5,3.1-11.7c-2.6-1.5-5.6-2.7-9.1-3.6
		c-3.5-0.9-7.1-1.4-10.8-1.4c-7,0-12.2,1.4-15.5,4.2c-3.3,2.8-4.9,6.4-4.9,10.8c0,4,1.5,7.2,4.6,9.8c3.1,2.5,7,3.8,11.9,3.8
		C892.2,197.8,896.3,196.7,899.9,194.5z"/>
	<path class="st2" d="M975.1,205.7l-36-81.9h20.9l24.5,59h0.7l23.8-59h20.6l-53.5,123.4h-19.7L975.1,205.7z"/>
	<path class="st2" d="M1041.7,123.8h17.9v11.4h0.8c2.6-4.2,6.3-7.6,11-10.2c4.8-2.6,9.9-3.9,15.3-3.9c6.2,0,11.7,1.4,16.3,4.3
		c4.6,2.9,8,6.7,10,11.5c2.9-4.8,6.9-8.6,11.8-11.5c4.9-2.9,10.7-4.3,17.4-4.3c10,0,17.5,3,22.7,9.1c5.2,6.1,7.7,14.3,7.7,24.7v55.6
		h-18.7v-52.4c0-13.1-5.6-19.7-16.8-19.7c-6,0-10.9,2.4-14.8,7.3c-3.9,4.9-5.8,10.9-5.8,18v46.8H1098v-52.4
		c0-13.1-5.8-19.7-17.3-19.7c-5.9,0-10.7,2.4-14.5,7.3c-3.8,4.9-5.7,10.9-5.7,18v46.8h-18.7V123.8z"/>
	<path class="st2" d="M1203.7,209.6c-4.9-2.4-8.7-5.9-11.4-10.4c-2.7-4.5-4.1-9.5-4.1-15.2c0-9,3.4-16,10.1-21.2
		c6.7-5.2,15.3-7.8,25.6-7.8c5.1,0,9.7,0.5,13.8,1.4c4.1,1,7.3,2,9.7,3.1v-4.4c0-5.3-2-9.7-6-13c-4-3.3-9.1-5-15.3-5
		c-4.4,0-8.6,1-12.5,2.9c-3.9,1.9-7.1,4.6-9.4,8l-13.1-10c3.9-5.3,8.8-9.5,15-12.4c6.1-2.9,12.9-4.4,20.4-4.4
		c12.6,0,22.3,3.1,29.1,9.3c6.8,6.2,10.2,14.9,10.2,26.1v54.1h-18.4v-10.4h-0.9c-2.5,3.7-6,6.9-10.5,9.4c-4.5,2.5-9.7,3.7-15.6,3.7
		C1214.1,213.2,1208.6,212,1203.7,209.6z M1235.8,194.5c3.6-2.2,6.5-5,8.5-8.7c2-3.6,3.1-7.5,3.1-11.7c-2.6-1.5-5.6-2.7-9.1-3.6
		c-3.5-0.9-7.1-1.4-10.8-1.4c-7,0-12.2,1.4-15.5,4.2c-3.3,2.8-4.9,6.4-4.9,10.8c0,4,1.5,7.2,4.6,9.8c3.1,2.5,7,3.8,11.9,3.8
		C1228.1,197.8,1232.2,196.7,1235.8,194.5z"/>
	<path class="st2" d="M1285.5,123.8h17.8v11.4h0.9c2.5-4,6.2-7.3,11-10c4.9-2.7,10.4-4.1,16.5-4.1c7.8,0,14.9,2,21.2,6
		c6.3,4,11.4,9.4,15,16.4c3.7,7,5.5,14.9,5.5,23.7c0,8.8-1.8,16.7-5.5,23.7c-3.7,7-8.7,12.4-15,16.4c-6.3,4-13.4,6-21.2,6
		c-6.1,0-11.6-1.4-16.5-4.1c-4.9-2.7-8.6-6-11-9.9h-0.9l0.9,12.1v35.9h-18.7V123.8z M1341.7,192.5c4-2.4,7.1-5.8,9.5-10.2
		s3.6-9.5,3.6-15.1c0-5.7-1.2-10.7-3.6-15c-2.4-4.4-5.6-7.7-9.5-10.1c-4-2.4-8.2-3.6-12.8-3.6c-4.5,0-8.8,1.2-12.7,3.6
		s-7.1,5.8-9.4,10.1c-2.4,4.4-3.6,9.4-3.6,15c0,5.7,1.2,10.7,3.6,15.1s5.5,7.8,9.4,10.2c3.9,2.4,8.1,3.6,12.7,3.6
		C1333.5,196,1337.8,194.9,1341.7,192.5z"/>
</g>
</svg>
