<svg id="Layer_1" data-name="Layer 1" xmlns="http://www.w3.org/2000/svg" viewBox="0 0 34.5 64.5"><defs><style>.cls-1{fill:#5383ec;}</style></defs><title>street view</title><path class="cls-1" d="M21.21,56.64c1.75-.46,3.46-.88,5.14-1.38a4.85,4.85,0,0,0,1.42-.75c1-.7,1-1.24-.08-1.79A15.24,15.24,0,0,0,24,51.27a27.85,27.85,0,0,0-14.13.31,11.22,11.22,0,0,0-2.71,1.29c-.77.48-.76,1.09,0,1.55A13.27,13.27,0,0,0,10,55.68c1.22.36,2.49.52,3.74.77a3.53,3.53,0,0,1,.49.15c-.72.7-1.39,1.34-2.07,2a.66.66,0,0,1-.46.1,14.5,14.5,0,0,1-6-2.28,3.24,3.24,0,0,1,0-5.51,13.63,13.63,0,0,1,6.28-2.35,29.31,29.31,0,0,1,15.31,1.13,8.7,8.7,0,0,1,2.57,1.54,3.1,3.1,0,0,1-.21,5.06,14.18,14.18,0,0,1-5.89,2.37.51.51,0,0,1-.41-.05C22.56,57.93,21.86,57.26,21.21,56.64Z"/><path class="cls-1" d="M14.29,54.28a.64.64,0,0,1-.48-.14.69.69,0,0,1-.17-.5c-.09-1.3-.17-2.6-.26-3.89l-.72-9.91c0-.62-.07-1.25-.14-1.88a1.23,1.23,0,0,0-1.3-1.19c-2-.1-2.24-.42-2-2.41q.69-5.28,1.33-10.56c.17-1.39.36-2.76,1.57-3.71a3.25,3.25,0,0,1,2.06-.8c2.23,0,4.47,0,6.71,0a3.48,3.48,0,0,1,3.34,2.79c.31,1.73.49,3.49.72,5.24.32,2.48.6,5,1,7.43.22,1.5-.4,2.08-1.7,2s-1.62.44-1.7,1.64c-.21,3.22-.46,6.44-.69,9.66-.14,1.9-.28,3.81-.38,5.71a.66.66,0,0,1-.15.46.52.52,0,0,1-.42.09C20.15,54.25,14.93,54.25,14.29,54.28Z"/><path class="cls-1" d="M17.58,5.47a6.26,6.26,0,1,0,6.23,6.27A6.3,6.3,0,0,0,17.58,5.47Zm0,10a3.73,3.73,0,0,1-3.72-3.79,3.74,3.74,0,0,1,7.47.08A3.78,3.78,0,0,1,17.56,15.48Z"/><path class="cls-1" d="M13.71,55.47,11.18,59a.23.23,0,0,0,.23.36l4.87-.83a.22.22,0,0,0,.13-.37l-2.35-2.73A.22.22,0,0,0,13.71,55.47Z"/></svg>