<svg id="Layer_1" data-name="Layer 1" xmlns="http://www.w3.org/2000/svg" viewBox="0 0 45 45"><defs><style>.cls-1{fill:#5383ec;}.cls-2,.cls-3{fill:none;}.cls-3{stroke:#5383ec;stroke-linecap:round;stroke-linejoin:round;}</style></defs><title>Trafficlight-01-01</title><rect class="cls-1" x="12.2" y="8.8" width="1.4" height="1.1"/><rect class="cls-1" x="12.2" y="7.7" width="1.4" height="1.1"/><rect class="cls-1" x="12.2" y="9.9" width="1.4" height="1.1"/><rect class="cls-2" x="19.8" y="38.6" width="4.7" height="2.7"/><rect class="cls-1" x="12.2" y="18" width="1.4" height="1.1"/><rect class="cls-1" x="12.2" y="11" width="1.4" height="5.9"/><rect class="cls-1" x="12.2" y="20.3" width="1.4" height="6.3"/><rect class="cls-1" x="12.2" y="27.7" width="1.4" height="1.1"/><rect class="cls-1" x="12.2" y="26.5" width="1.4" height="1.1"/><rect class="cls-1" x="12.2" y="28.8" width="1.4" height="1.1"/><rect class="cls-1" x="30.6" y="26.5" width="1.5" height="1.1"/><rect class="cls-1" x="30.6" y="28.8" width="1.5" height="1.1"/><rect class="cls-1" x="12.2" y="16.9" width="1.4" height="1.1"/><rect class="cls-1" x="12.2" y="19.2" width="1.4" height="1.1"/><rect class="cls-1" x="30.6" y="16.9" width="1.4" height="1.1"/><rect class="cls-1" x="30.6" y="19.2" width="1.4" height="1.1"/><rect class="cls-2" x="19.8" y="38.6" width="4.7" height="2.7"/><path class="cls-1" d="M12.2,29.9v8.4a.71.71,0,0,0,.6.3h5.4V42a.71.71,0,0,0,.8.7h6.2A.77.77,0,0,0,26,42V38.6h5.4a.84.84,0,0,0,.7-.4V11H30.6v5.9H32V18H30.6v1.1H32v1.1H30.6v6.3h1.5v1.1H30.6v1.1h1.5v1.1H30.6v7.4h-17V29.8H12.2Zm7.6,8.7h4.7v2.7H19.8Z"/><rect class="cls-1" x="30.6" y="8.8" width="1.5" height="1.1"/><path class="cls-3" d="M31.4,5.4h7a19.91,19.91,0,0,0-3.7,3.2,19.71,19.71,0,0,0-3.3,4.8Z"/><path class="cls-3" d="M31.4,18.6h7a19.91,19.91,0,0,0-3.7,3.2,19.71,19.71,0,0,0-3.3,4.8Z"/><path class="cls-3" d="M12.9,5.4h-7A19.91,19.91,0,0,1,9.6,8.6a19.71,19.71,0,0,1,3.3,4.8Z"/><path class="cls-3" d="M12.9,18.6h-7a19.91,19.91,0,0,1,3.7,3.2,19.71,19.71,0,0,1,3.3,4.8Z"/><polygon class="cls-1" points="31.8 2.1 30.6 2.1 13.6 2.1 12.4 2.1 12.1 2.1 12.1 2.3 12.1 7.7 12.1 38.6 13.6 38.6 13.6 3.4 30.6 3.4 30.6 7.7 30.6 38.6 32.2 38.6 32.2 2.1 31.8 2.1"/><circle class="cls-1" cx="21.63" cy="19.51" r="3.3"/><circle class="cls-1" cx="21.63" cy="29.1" r="3.3"/><circle class="cls-1" cx="21.63" cy="9.9" r="3.3"/></svg>