<?xml version="1.0" encoding="utf-8"?>
<!-- Generator: Adobe Illustrator 22.0.0, SVG Export Plug-In . SVG Version: 6.00 Build 0)  -->
<svg version="1.1" id="Layer_1" xmlns="http://www.w3.org/2000/svg" xmlns:xlink="http://www.w3.org/1999/xlink" x="0px" y="0px"
	 viewBox="0 0 45 45" style="enable-background:new 0 0 45 45;" xml:space="preserve">
<style type="text/css">
	.st0{fill:#5383EC;}
	.st1{fill:#5383EC;stroke:#5383EC;stroke-width:0.1;stroke-miterlimit:10;}
</style>
<rect x="-291.5" y="-90" class="st0" width="107" height="116"/>
<g>
	<path class="st1" d="M31.5,35.9c-1.4,1.9-2.8,3.8-4.2,5.7l0.7-3.8c0-0.1,0-0.2-0.1-0.3c-0.1-0.1-0.2-0.1-0.3-0.1h-3.2l0.6-0.9
		c-0.4,0.2-0.9,0.4-1.4,0.6l-0.3,0.4c-0.1,0.1-0.1,0.3,0,0.4c0.1,0.1,0.2,0.2,0.4,0.2h3.5l-1,5c0,0.2,0.1,0.4,0.2,0.4
		c0.1,0,0.1,0,0.2,0c0.1,0,0.2-0.1,0.3-0.2l5.5-7.5c-0.2,0-0.4,0-0.6-0.1C31.8,36,31.6,35.9,31.5,35.9z"/>
	<path class="st1" d="M4.7,13.7c0-4.4,3.7-7.9,8.2-7.9c2.4,0,4.6,1,6.1,2.6C19.2,8.2,19.6,8,20,7.8c-1.7-2-4.3-3.3-7.1-3.3
		c-5.1,0-9.3,4.1-9.3,9.1c0,1.7,0.5,3.4,1.4,4.7c0.3-0.3,0.6-0.5,0.9-0.7C5.1,16.5,4.7,15.1,4.7,13.7z"/>
	<path class="st1" d="M36.1,15.7c-1.3-5.1-6-8.8-11.4-8.8c-1.7,0-3.3,0.3-4.7,1c0.3,0.3,0.5,0.6,0.7,1c1.2-0.5,2.6-0.8,4-0.8
		c5,0,9.4,3.5,10.4,8.2l0.1,0.4l0.3,0.1c4.2,1,7.1,4.7,7.1,9c0,5.1-4.3,9.2-9.5,9.2c-1.5,0-3-0.3-4.3-1l-0.2,1l3.6,0.4
		c0.1,0,0.3,0.1,0.3,0.2c0.1,0.1,0,0.3,0,0.4L32.4,36c0.2,0,0.5,0,0.7,0c5.9,0,10.6-4.7,10.6-10.4C43.8,21,40.7,17,36.1,15.7z"/>
	<path class="st1" d="M9.6,17.3l0-0.5c0,0,0-0.1,0-0.1c0-2.6,2.2-4.7,4.8-4.7c0.5,0,0.9,0.1,1.3,0.2l0.4,0.1l0.2-0.3
		c0.9-1.2,2.1-2.1,3.3-2.7c-0.2-0.3-0.5-0.6-0.7-0.9C17.7,9,16.6,9.9,15.6,11c-0.4-0.1-0.8-0.1-1.3-0.1c-3.2,0-5.8,2.5-5.9,5.5
		c-1,0.3-1.9,0.7-2.7,1.3C6,18,6.2,18.3,6.4,18.6c0.8-0.6,1.7-1,2.7-1.2L9.6,17.3z"/>
	<path class="st1" d="M27.5,33.1l-2.4,3.4c0.9-0.5,1.8-1.2,2.5-2c0.1,0.1,0.2,0.1,0.3,0.2l0.3-1.2c-0.1-0.1-0.3-0.2-0.4-0.2
		L27.5,33.1z"/>
	<path class="st1" d="M21.2,36.3c-3.3,0-6.2-2.3-6.9-5.4l-0.2-0.7l-0.6,0.3c-0.9,0.4-1.9,0.6-2.8,0.6c-3.9,0-7.1-3.1-7.1-6.9
		c0-1.9,0.8-3.6,2-4.8c-0.2-0.3-0.5-0.6-0.7-0.9c-1.6,1.5-2.5,3.6-2.5,5.8c0,4.4,3.7,8.1,8.2,8.1c0.9,0,1.8-0.1,2.7-0.4
		c0.5,1.5,1.4,2.9,2.7,3.9c1.5,1.2,3.3,1.8,5.2,1.8c0.9,0,1.7-0.1,2.5-0.4l1.3-1.9C23.9,36,22.5,36.3,21.2,36.3z"/>
	<path class="st1" d="M32.6,35.5c-0.1-0.1-0.2-0.2-0.3-0.2l-3.6-0.4l0.2-1c-0.2-0.1-0.5-0.3-0.7-0.4l-0.3,1.2c1.4,0.8,3,1.2,4.6,1.3
		l0.1-0.1C32.6,35.8,32.6,35.7,32.6,35.5z"/>
	<path class="st1" d="M27.5,33.1L27.3,33L27,33.4c-0.5,0.7-1.2,1.3-2,1.8l-1.3,1.9c0.5-0.2,1-0.3,1.4-0.6L27.5,33.1z"/>
	<path class="st1" d="M19.6,9.3c0.3-0.2,0.7-0.3,1.1-0.5c-0.2-0.3-0.5-0.7-0.7-1c-0.4,0.2-0.7,0.3-1.1,0.5C19.2,8.7,19.4,9,19.6,9.3
		z"/>
	<path class="st1" d="M6.4,18.6C6.2,18.3,6,18,5.8,17.7c-0.3,0.2-0.6,0.5-0.9,0.7c0.2,0.3,0.4,0.6,0.7,0.9
		C5.8,19.1,6.1,18.8,6.4,18.6z"/>
	<path class="st1" d="M11.8,23.9"/>
	<g>
		<path class="st1" d="M8.9,4.9c-0.2,0-0.4-0.2-0.4-0.4v-2c0-0.2,0.2-0.4,0.4-0.4c0.2,0,0.4,0.2,0.4,0.4v2C9.3,4.8,9.1,4.9,8.9,4.9z
			"/>
	</g>
	<g>
		<path class="st1" d="M7.3,5.8C7.2,5.8,7.1,5.7,7,5.6L5.4,3.5C5.3,3.3,5.3,3.1,5.5,2.9C5.7,2.8,5.9,2.8,6.1,3l1.6,2.1
			c0.1,0.2,0.1,0.4-0.1,0.6C7.5,5.8,7.4,5.8,7.3,5.8z"/>
	</g>
	<g>
		<path class="st1" d="M6,7C5.9,7,5.9,7,5.8,7L4.1,6.1C3.9,6,3.9,5.7,4,5.5c0.1-0.2,0.4-0.3,0.5-0.2l1.7,0.9
			c0.2,0.1,0.3,0.4,0.2,0.5C6.3,7,6.1,7,6,7z"/>
	</g>
	<g>
		<path class="st1" d="M4.6,9C4.6,9,4.5,9,4.6,9L2.3,8.5C2.1,8.4,2,8.2,2,8c0-0.2,0.3-0.4,0.5-0.3l2.2,0.5C4.9,8.2,5,8.4,5,8.7
			C4.9,8.8,4.8,9,4.6,9z"/>
	</g>
	<g>
		<path class="st1" d="M10.7,4.4C10.7,4.4,10.6,4.4,10.7,4.4c-0.3-0.1-0.4-0.3-0.4-0.5l0.5-2.3c0-0.2,0.3-0.4,0.5-0.3
			c0.2,0,0.4,0.3,0.3,0.5l-0.5,2.3C11,4.3,10.9,4.4,10.7,4.4z"/>
	</g>
	<g>
		<path class="st1" d="M13,4.4c-0.1,0-0.1,0-0.2,0c-0.2-0.1-0.3-0.3-0.2-0.5l0.7-1.3c0.1-0.2,0.3-0.3,0.5-0.2
			C14,2.4,14.1,2.6,14,2.8l-0.7,1.3C13.3,4.3,13.1,4.4,13,4.4z"/>
	</g>
	<g>
		<path class="st1" d="M3.5,10.9H2c-0.2,0-0.4-0.2-0.4-0.4c0-0.2,0.2-0.4,0.4-0.4h1.5c0.2,0,0.4,0.2,0.4,0.4
			C3.9,10.8,3.7,10.9,3.5,10.9z"/>
	</g>
	<g>
		<path class="st1" d="M7.4,36.6c-0.1-0.1-0.2-0.1-0.3,0c-0.8,0.4-1.2,1.3-1.2,2.2c0,0,0,0.1,0,0.1c0,0.9,0.7,1.3,1.4,1.3
			c0.7,0,1.4-0.5,1.4-1.3c0,0,0-0.1,0-0.1C8.6,37.9,8.2,37,7.4,36.6z"/>
		<path class="st1" d="M11.8,36.4C11.8,36.4,11.8,36.4,11.8,36.4c0.6,0,1.3-0.4,1.3-1.2c0,0,0-0.1,0-0.1c0-0.8-0.4-1.6-1.1-2
			c-0.1-0.1-0.2-0.1-0.3,0c-0.7,0.4-1.1,1.2-1.1,2c0,0,0,0.1,0,0.1C10.6,35.9,11.2,36.4,11.8,36.4z"/>
		<path class="st1" d="M12.1,39.4c-0.1-0.1-0.2-0.1-0.3,0c-0.7,0.4-1.1,1.1-1.1,1.9c0,0,0,0.1,0,0.1c0,0.8,0.6,1.2,1.2,1.2
			c0.6,0,1.2-0.4,1.2-1.2c0,0,0-0.1,0-0.1C13.2,40.5,12.8,39.8,12.1,39.4z"/>
		<path class="st1" d="M16.9,37.2c-0.1-0.1-0.2-0.1-0.3,0c-0.7,0.4-1.1,1.1-1.1,1.9c0,0,0,0.1,0,0.1c0,0.8,0.7,1.2,1.3,1.2
			c0.6,0,1.2-0.4,1.3-1.2c0,0,0-0.1,0-0.1C18,38.4,17.6,37.6,16.9,37.2z"/>
		<path class="st1" d="M19.9,40.9c-0.1-0.1-0.2-0.1-0.3,0c-0.8,0.4-1.2,1.3-1.2,2.2c0,0,0,0.1,0,0.1c0,0.9,0.7,1.3,1.4,1.3
			c0,0,0,0,0,0c0.7,0,1.4-0.5,1.4-1.3c0,0,0-0.1,0-0.1C21.1,42.2,20.6,41.4,19.9,40.9z"/>
		<path class="st1" d="M31.3,39.3c-0.1-0.1-0.2-0.1-0.3,0c-0.6,0.4-1,1.1-1,1.8c0,0,0,0.1,0,0.1c0,0.7,0.6,1.1,1.2,1.1
			c0.6,0,1.2-0.4,1.2-1.1c0,0,0-0.1,0-0.1C32.4,40.3,32,39.7,31.3,39.3z"/>
		<path class="st1" d="M23.2,38c-0.1-0.1-0.2-0.1-0.3,0c-0.5,0.3-0.9,0.9-0.9,1.5c0,0,0,0,0,0.1c0,0.6,0.5,1,1,1c0.5,0,1-0.3,1-1
			c0,0,0,0,0-0.1C24.1,38.9,23.7,38.3,23.2,38z"/>
	</g>
</g>
</svg>
